<?xml version="1.0" encoding="UTF-8"?>
<svg 
  xmlns="http://www.w3.org/2000/svg" 
  id="Layer_1" 
  data-name="Layer 1" 
  viewBox="0 0 24 24"
  width="80" 
  height="80">
  <path 
    d="m17.5,8c2.209,0,4,1.791,4,4s-1.791,4-4,4-4-1.791-4-4,1.791-4,4-4Zm-5.5,0c2.209,0,4-1.791,4-4S14.209,0,12,0s-4,1.791-4,4,1.791,4,4,4Zm-5.5,8c2.209,0,4-1.791,4-4s-1.791-4-4-4-4,1.791-4,4,1.791,4,4,4Zm17.454,6.131c-.766-3.021-3.522-5.131-6.704-5.131-2.082,0-3.97.915-5.25,2.388-1.279-1.472-3.167-2.388-5.25-2.388-3.181,0-5.938,2.11-6.704,5.131-.204.803.282,1.619,1.085,1.823.804.205,1.62-.282,1.823-1.085.223-.88.758-1.616,1.47-2.124l1.416,1.814c.471.589,1.367.589,1.839,0l1.428-1.794c.697.508,1.219,1.237,1.439,2.105.003.013.273,1.132,1.455,1.132s1.45-1.118,1.453-1.132c.223-.88.758-1.615,1.47-2.124l1.416,1.814c.471.589,1.367.589,1.839,0l1.428-1.794c.698.508,1.219,1.237,1.439,2.105.203.803,1.024,1.289,1.822,1.085.804-.204,1.289-1.02,1.086-1.823Z"
    fill="#ae7aff"/>
</svg>
