<!DOCTYPE svg PUBLIC "-//W3C//DTD SVG 1.1//EN" "http://www.w3.org/Graphics/SVG/1.1/DTD/svg11.dtd">
<!-- Uploaded to: SVG Repo, www.svgrepo.com, Transformed by: SVG Repo Mixer Tools -->
<svg fill="#ae7aff" height="81px" width="81px" version="1.1" id="Layer_1" xmlns="http://www.w3.org/2000/svg" xmlns:xlink="http://www.w3.org/1999/xlink" viewBox="0 0 480 480" xml:space="preserve">
<g id="SVGRepo_bgCarrier" stroke-width="0"/>
<g id="SVGRepo_tracerCarrier" stroke-linecap="round" stroke-linejoin="round"/>
<g id="SVGRepo_iconCarrier"> <g> <g> <g> <path d="M440,56h-32h-9.968l-11.04-38.552C384.12,7.176,374.632,0,363.92,0h-95.84c-10.712,0-20.192,7.176-23.048,17.4 L233.968,56H224h-32c-22.056,0-40,17.944-40,40v24c0,4.416,3.584,8,8,8s8-3.584,8-8V96c0-13.232,10.768-24,24-24h9.472 c-0.896,2.512-1.472,5.184-1.472,8v24c0,4.416,3.584,8,8,8h216c4.416,0,8-3.584,8-8V80c0-2.816-0.576-5.488-1.472-8H440 c13.232,0,24,10.768,24,24v16v328c0,13.232-10.768,24-24,24H224c-4.416,0-8,3.584-8,8c0,4.416,3.584,8,8,8h216 c22.056,0,40-17.944,40-40V112V96C480,73.944,462.056,56,440,56z M416,96H216V80c0-4.408,3.592-8,8-8h16 c3.568,0,6.704-2.36,7.688-5.8l12.736-44.448c0.944-3.384,4.088-5.752,7.656-5.752h95.84c3.56,0,6.704,2.368,7.664,5.808 l12.72,44.4c0.056,0.184,0.176,0.328,0.24,0.504c0.12,0.336,0.288,0.648,0.456,0.96c0.288,0.544,0.616,1.048,1.016,1.512 c0.066,0.076,0.142,0.144,0.21,0.219c0.093,0.104,0.191,0.205,0.29,0.303c0.072,0.073,0.136,0.152,0.212,0.221 c0.48,0.424,1.016,0.768,1.592,1.072c0.272,0.144,0.528,0.32,0.816,0.432C390.032,71.768,390.984,72,392,72h16 c4.408,0,8,3.592,8,8V96z"/> <path d="M317.04,27.6c-13.504,0-24.48,11.016-24.48,24.56c0,13.504,10.976,24.48,24.48,24.48c13.544,0,24.56-10.984,24.56-24.48 C341.6,38.616,330.584,27.6,317.04,27.6z M317.04,60.64c-4.672,0-8.48-3.808-8.48-8.48c0-4.8,3.728-8.56,8.48-8.56 c4.8,0,8.56,3.76,8.56,8.56C325.6,56.912,321.84,60.64,317.04,60.64z"/> <path d="M139.04,238C83.328,238,38,283.328,38,339.04C38,394.712,83.328,440,139.04,440C194.712,440,240,394.712,240,339.04 C240,283.328,194.712,238,139.04,238z M139.04,424C92.152,424,54,385.888,54,339.04C54,292.152,92.152,254,139.04,254 c46.848,0,84.96,38.152,84.96,85.04C224,385.888,185.888,424,139.04,424z"/> <path d="M200.52,343.144c-2.176-0.152-4.112,1.384-4.48,3.408c-0.288,2.04,1.192,4.08,3.312,4.568 c2.224,0.512,4.336-1,4.672-3.376C204.44,345.376,202.792,343.312,200.52,343.144z"/> <path d="M197.12,358.736c-2.128-0.736-4.336,0.272-5.144,2.16c-0.896,1.848-0.016,4.2,1.952,5.248 c1.968,1.048,4.416,0.144,5.448-2.024C200.328,361.912,199.2,359.456,197.12,358.736z"/> <path d="M189.856,372.952c-1.848-1.248-4.352-0.928-5.576,0.72c-1.216,1.664-1.136,4.024,0.536,5.576 c1.592,1.48,4.352,1.376,5.784-0.552C192.04,376.776,191.704,374.2,189.856,372.952z"/> <path d="M173.56,384.048c-1.616,1.28-2.048,3.712-0.88,5.56c1.216,1.92,3.816,2.4,5.704,0.912c1.952-1.4,2.256-4.008,0.76-5.728 C177.704,383.152,175.24,382.856,173.56,384.048z"/> <path d="M160.568,391.36c-1.936,0.704-2.96,3.008-2.296,5.136s3.032,3.192,5.288,2.36c2.264-0.808,3.152-3.44,2.184-5.392 C164.736,391.416,162.504,390.68,160.568,391.36z"/> <path d="M148.696,394.64c-2.032,0.304-3.52,2.392-3.336,4.568c0.192,2.256,2.272,3.744,4.648,3.392 c2.392-0.296,3.832-2.592,3.296-4.76C152.776,395.68,150.744,394.408,148.696,394.64z"/> <path d="M133.784,395.208c-2.04-0.232-3.992,1.24-4.376,3.448c-0.376,2.176,1.232,4.312,3.616,4.584 c2.392,0.128,4.368-1.584,4.408-3.816C137.472,397.2,135.84,395.304,133.784,395.208z"/> <path d="M119.256,391.832c-1.952-0.648-4.216,0.28-5.144,2.272c-0.952,2.048,0.048,4.52,2.328,5.288 c2.248,0.848,4.592-0.264,5.216-2.464C122.256,394.84,121.176,392.552,119.256,391.832z"/> <path d="M106.064,384.872c-1.648-1.232-4.144-0.84-5.568,0.872c-1.424,1.712-1.032,4.272,0.896,5.704 c1.896,1.488,4.608,0.784,5.712-1.08C108.28,388.408,107.68,386.152,106.064,384.872z"/> <path d="M89.552,374.128c-1.808,1.28-2.152,3.912-0.664,5.8c1.608,1.784,4.216,1.96,5.816,0.4c1.6-1.552,1.776-4.048,0.384-5.568 C93.824,373.144,91.376,372.832,89.552,374.128z"/> <path d="M88.288,364.488c-0.888-1.856-3.28-2.648-5.328-1.776c-2.048,0.872-2.872,3.336-1.832,5.496 c1.056,2.16,3.736,2.792,5.584,1.632C88.64,368.648,89.176,366.336,88.288,364.488z"/> <path d="M83.184,350.472c-0.488-1.992-2.392-3.416-4.648-3.096c-2.168,0.304-3.8,2.504-3.24,4.84 c0.592,2.328,2.816,3.688,4.944,3.04C82.384,354.6,83.704,352.464,83.184,350.472z"/> <path d="M81.92,335.608c0.12-2.056-1.648-3.936-3.8-4.192c-2.272-0.272-4.136,1.464-4.264,3.864 c-0.192,2.392,1.728,4.272,3.976,4.192C80.04,339.392,81.744,337.664,81.92,335.608z"/> <path d="M79.52,323.6c2.176,0.496,4.352-0.72,4.864-2.704c0.712-1.928-0.4-4.16-2.464-4.992c-2.072-0.824-4.424,0.328-5.24,2.592 C76.064,320.816,77.352,323.104,79.52,323.6z"/> <path d="M85.192,308.672c1.968,1.04,4.44,0.464,5.504-1.296c1-1.808,0.68-4.136-1.144-5.488c-1.752-1.312-4.496-0.92-5.68,1.176 C82.624,305.12,83.216,307.632,85.192,308.672z"/> <path d="M92.568,292.04c-1.616,1.776-1.544,4.384,0.16,5.816c1.704,1.432,4.216,1.368,5.592-0.152 c1.464-1.44,1.552-3.88,0.08-5.576C96.952,290.464,94.272,290.36,92.568,292.04z"/> <path d="M111.584,283.128c-0.976-1.992-3.568-2.84-5.584-1.536c-2.048,1.256-2.688,3.72-1.376,5.592 c1.24,1.784,3.736,2.44,5.48,1.36C111.824,287.408,112.568,285.144,111.584,283.128z"/> <path d="M123.816,282.696c1.992-0.512,3.256-2.704,2.824-4.888c-0.432-2.184-2.664-3.48-4.992-2.88 c-2.352,0.52-3.512,3.056-2.76,5.104C119.672,282.168,121.8,283.128,123.816,282.696z"/> <path d="M138.584,280.568c2.056-0.032,3.84-1.648,3.984-3.904c0.144-2.192-1.68-4.2-4.08-4.168 c-2.4,0.112-4.176,2.016-3.984,4.24C134.696,278.96,136.528,280.68,138.584,280.568z"/> <path d="M155.368,274.536c-2.312-0.656-4.536,0.792-4.92,3.024c-0.368,2.16,0.968,4.224,2.944,4.8 c2,0.488,4.176-0.776,4.872-2.832C158.992,277.368,157.704,275.112,155.368,274.536z"/> <path d="M168.552,279.424c-2.168-1.04-4.6-0.216-5.448,1.864c-0.832,2.048-0.024,4.464,1.832,5.352 c1.888,0.816,4.192,0.248,5.352-1.688C171.424,283.064,170.752,280.4,168.552,279.424z"/> <path d="M182.632,288.944c-1.728-1.672-4.448-1.312-5.776,0.448c-1.36,1.792-1.04,4.152,0.432,5.592 c1.512,1.4,4.08,1.232,5.64-0.288C184.56,293.112,184.4,290.56,182.632,288.944z"/> <path d="M192.584,307.424c1.944-1.088,2.512-3.632,1.264-5.688c-1.368-1.976-4-2.384-5.744-1.016 c-1.768,1.384-2.144,3.8-0.976,5.488C188.192,307.968,190.64,308.512,192.584,307.424z"/> <path d="M193.68,319.608c0.784,1.904,2.744,3.136,4.968,2.576c2.096-0.528,3.568-2.92,2.68-5.16 c-0.824-2.256-3.16-3.376-5.208-2.496C194.064,315.408,192.968,317.68,193.68,319.608z"/> <path d="M200.2,329.968c-2.224,0.312-3.672,2.208-3.648,4.272c0.104,2.056,2,3.744,4.232,3.768 c2.232,0.024,3.944-1.896,3.824-4.288C204.56,331.32,202.4,329.656,200.2,329.968z"/> <path d="M152,346.736V312c0-4.416-3.584-8-8-8s-8,3.584-8,8v24h-16c-4.416,0-8,3.584-8,8c0,4.416,3.584,8,8,8h23.16 C147.576,352,152,351.152,152,346.736z"/> <path d="M312,440c0,4.416,3.584,8,8,8h72c4.416,0,8-3.584,8-8v-52.688l21.656-21.656c3.128-3.128,3.128-8.184,0-11.312 s-8.184-3.128-11.312,0L400,364.688V360c0-4.416-3.584-8-8-8h-72c-4.416,0-8,3.584-8,8V440z M328,368h56v12.688l-22.76,22.752 l-10.584-15.88c-2.456-3.68-7.416-4.68-11.096-2.216c-3.672,2.448-4.664,7.416-2.216,11.096l16,24 c1.328,2,3.488,3.288,5.864,3.52c0.272,0.032,0.528,0.04,0.792,0.04c2.112,0,4.152-0.832,5.656-2.344L384,403.312V432h-56V368z"/> <path d="M312,328c0,4.416,3.584,8,8,8h72c4.416,0,8-3.584,8-8v-52.688l21.656-21.656c3.128-3.128,3.128-8.184,0-11.312 s-8.184-3.128-11.312,0L400,252.688V248c0-4.416-3.584-8-8-8h-72c-4.416,0-8,3.584-8,8V328z M328,256h56v12.688l-22.76,22.752 l-10.584-15.88c-2.456-3.672-7.416-4.68-11.096-2.216c-3.672,2.448-4.664,7.416-2.216,11.096l16,24 c1.328,2,3.488,3.288,5.864,3.52c0.272,0.032,0.528,0.04,0.792,0.04c2.112,0,4.152-0.832,5.656-2.344L384,291.312V320h-56V256z"/> <path d="M392,128h-72c-4.416,0-8,3.584-8,8v80c0,4.416,3.584,8,8,8h72c4.416,0,8-3.584,8-8v-52.688l21.656-21.656 c3.128-3.128,3.128-8.184,0-11.312s-8.184-3.128-11.312,0L400,140.688V136C400,131.584,396.416,128,392,128z M384,156.688 l-22.76,22.752l-10.584-15.88c-2.456-3.68-7.416-4.672-11.096-2.216c-3.672,2.448-4.664,7.416-2.216,11.096l16,24 c1.328,2,3.488,3.288,5.864,3.52c0.272,0.032,0.528,0.04,0.792,0.04c2.112,0,4.152-0.832,5.656-2.344L384,179.312V208h-56v-64h56 V156.688z"/> <path d="M280,340c0-38.184-15.4-72.808-40.272-98.096l10.096-12.144c2.728-3.272,4.008-7.416,3.608-11.672 c-0.392-4.24-2.408-8.072-5.672-10.792l-10-8.32c-3.304-2.752-7.48-4.056-11.768-3.632c-4.248,0.408-8.072,2.464-10.688,5.68 l-11.952,14.296c-11.048-5.64-22.872-9.952-35.352-12.496V192c13.232,0,24-10.768,24-24s-10.768-24-24-24h-56 c-13.232,0-24,10.768-24,24s10.768,24,24,24v10.824c-16.168,3.296-31.248,9.512-44.888,17.872L56.704,208.24 c-2.72-3.264-6.552-5.28-10.792-5.672c-4.264-0.44-8.408,0.88-11.672,3.608l-10,8.328c-6.704,5.592-7.664,15.672-2.056,22.56 L32.96,249.96C12.432,274.312,0,305.72,0,340c0,77.192,62.808,140,140,140S280,417.192,280,340z M227.52,211.272l10,8.256 l-8.32,10l-9.952-8.312L227.52,211.272z M104,168c0-4.408,3.592-8,8-8h56c4.408,0,8,3.592,8,8s-3.592,8-8,8h-8h-40h-8 C107.592,176,104,172.408,104,168z M152,192v8h-12h-12v-8H152z M44.424,218.488l8.304,9.944l-9.952,8.304l-8.296-9.944 L44.424,218.488z M140,464c-68.376,0-124-55.624-124-124s55.624-124,124-124s124,55.624,124,124S208.376,464,140,464z"/> </g> </g> </g> </g>
</svg>