<!DOCTYPE svg PUBLIC "-//W3C//DTD SVG 1.1//EN" "http://www.w3.org/Graphics/SVG/1.1/DTD/svg11.dtd">
<!-- Uploaded to: SVG Repo, www.svgrepo.com, Transformed by: SVG Repo Mixer Tools -->
<svg width="81px" height="81px" viewBox="0 0 1024 1024" fill="#ae7aff" class="icon" version="1.1" xmlns="http://www.w3.org/2000/svg" stroke="#ae7aff">
<g id="SVGRepo_bgCarrier" stroke-width="0"/>
<g id="SVGRepo_tracerCarrier" stroke-linecap="round" stroke-linejoin="round"/>
<g id="SVGRepo_iconCarrier">
<path d="M927.946 1023.886h-191.974a7.994 7.994 0 0 1-7.998-8v-26.418c0-19.608 12.902-26.074 24.996-30.59 13.654-5.14 28.308-13.608 31.184-17.17a7.994 7.994 0 0 1 15.84 1.546c0 13.982-31.712 26.95-41.416 30.59-12.592 4.718-14.608 7.888-14.608 15.624v18.42h175.978v-18.42c0-7.75-2.016-10.904-14.608-15.608-6.922-2.594-41.372-16.248-41.372-30.606a7.994 7.994 0 0 1 8-7.998 8.014 8.014 0 0 1 7.858 6.466c2.86 3.562 17.466 12.03 31.122 17.154 12.092 4.516 24.998 10.966 24.998 30.59v26.418a7.996 7.996 0 0 1-8 8.002z" fill=""/>
<path d="M831.972 959.894c-27.34 0-63.974-37.918-63.974-76.678 0-38.37 27.496-67.302 63.974-67.302 37.074 0 63.992 28.308 63.992 67.302 0 38.76-36.634 76.678-63.992 76.678z m0-127.984c-27.792 0-47.976 21.576-47.976 51.306 0 32.59 32.184 60.68 47.976 60.68 15.796 0 47.994-28.09 47.994-60.68 0-29.73-20.182-51.306-47.994-51.306z" fill=""/>
<path d="M871.968 951.254c-4.422 0-8-3.576-8-7.998v-17.138c0-4.422 3.578-7.998 8-7.998s7.998 3.576 7.998 7.998v17.138a7.992 7.992 0 0 1-7.998 7.998zM791.994 951.254a7.994 7.994 0 0 1-7.998-7.998v-17.138a7.994 7.994 0 0 1 7.998-7.998 7.992 7.992 0 0 1 7.998 7.998v17.138a7.992 7.992 0 0 1-7.998 7.998zM607.986 1023.886h-191.974a7.994 7.994 0 0 1-7.998-8v-26.418c0-19.608 12.896-26.074 24.988-30.59 13.67-5.14 28.308-13.608 31.184-17.17a8.006 8.006 0 0 1 7.85-6.452c4.42 0 8 3.578 8 7.998 0 13.982-31.708 26.95-41.416 30.59-12.592 4.718-14.608 7.888-14.608 15.624v18.42h175.978v-18.42c0-7.75-2.016-10.904-14.608-15.608-6.922-2.594-41.37-16.248-41.37-30.606a7.994 7.994 0 0 1 7.998-7.998 8.014 8.014 0 0 1 7.858 6.466c2.86 3.562 17.468 12.03 31.122 17.154 12.094 4.516 24.998 10.966 24.998 30.59v26.418a8 8 0 0 1-8.002 8.002z" fill=""/>
<path d="M512.016 959.894c-27.34 0-63.976-37.918-63.976-76.678 0-38.37 27.504-67.302 63.976-67.302 37.072 0 63.992 28.308 63.992 67.302 0 38.76-36.636 76.678-63.992 76.678z m0-127.984c-27.802 0-47.978 21.576-47.978 51.306 0 32.59 32.184 60.68 47.978 60.68 15.802 0 47.992-28.09 47.992-60.68 0-29.73-20.184-51.306-47.992-51.306z" fill=""/>
<path d="M552.01 951.254a7.994 7.994 0 0 1-7.998-7.998v-17.138a7.994 7.994 0 0 1 7.998-7.998 7.992 7.992 0 0 1 7.998 7.998v17.138a7.992 7.992 0 0 1-7.998 7.998zM472.036 951.254c-4.42 0-8-3.576-8-7.998v-17.138c0-4.422 3.578-7.998 8-7.998s8 3.576 8 7.998v17.138a7.994 7.994 0 0 1-8 7.998zM288.03 1023.886H96.052a7.994 7.994 0 0 1-7.998-8v-26.418c0-19.608 12.896-26.074 24.988-30.59 13.67-5.14 28.308-13.608 31.184-17.17a8.006 8.006 0 0 1 7.852-6.452 7.994 7.994 0 0 1 7.998 7.998c0 13.982-31.708 26.95-41.416 30.59-12.592 4.718-14.608 7.888-14.608 15.624v18.42h175.976v-18.42c0-7.75-2.016-10.904-14.608-15.608-6.92-2.594-41.37-16.248-41.37-30.606a7.994 7.994 0 0 1 7.998-7.998 8.008 8.008 0 0 1 7.852 6.466c2.868 3.562 17.482 12.03 31.128 17.154 12.084 4.516 24.996 10.966 24.996 30.59v26.418a7.99 7.99 0 0 1-7.994 8.002z" fill=""/>
<path d="M192.056 959.894c-27.34 0-63.976-37.918-63.976-76.678 0-38.37 27.504-67.302 63.976-67.302 37.082 0 63.992 28.308 63.992 67.302 0 38.76-36.644 76.678-63.992 76.678z m0-127.984c-27.8 0-47.978 21.576-47.978 51.306 0 32.59 32.184 60.68 47.978 60.68 15.802 0 47.994-28.09 47.994-60.68 0-29.73-20.184-51.306-47.994-51.306z" fill=""/>
<path d="M232.05 951.254a7.994 7.994 0 0 1-7.998-7.998v-17.138a7.994 7.994 0 0 1 7.998-7.998c4.422 0 8 3.576 8 7.998v17.138a7.994 7.994 0 0 1-8 7.998zM152.078 951.254c-4.422 0-8-3.576-8-7.998v-17.138a7.994 7.994 0 0 1 8-7.998 7.994 7.994 0 0 1 7.998 7.998v17.138a7.994 7.994 0 0 1-7.998 7.998z" fill=""/>
<path d="M320.024 559.946c-4.42 0-8-3.576-8-7.998v-53.304c0-31.184 16.568-43.48 45.19-54.182 14.936-5.562 36.916-13.982 55.352-22.778a7.994 7.994 0 0 1 10.664 3.764c1.906 4 0.218 8.764-3.774 10.67-19.006 9.076-41.432 17.668-56.64 23.34-27.31 10.202-34.792 18.624-34.792 39.184v53.304c0 4.424-3.578 8-8 8zM703.974 559.946a7.992 7.992 0 0 1-7.998-7.998v-53.304c0-20.56-7.484-28.982-34.792-39.184-8.734-3.264-35.308-13.17-56.68-23.402-3.984-1.906-5.672-6.688-3.766-10.67s6.688-5.656 10.67-3.764c20.732 9.936 46.792 19.654 55.37 22.84 28.636 10.702 45.196 22.998 45.196 54.182v53.304a7.994 7.994 0 0 1-8 7.996zM511.624 431.962c-45.206 0-119.984-71.944-119.984-153.918a7.994 7.994 0 0 1 7.998-7.998c4.422 0 8 3.578 8 7.998 0 71.116 64.874 137.92 103.986 137.92 39.12 0 103.986-66.804 103.986-137.92a7.994 7.994 0 0 1 7.998-7.998c4.422 0 8 3.578 8 7.998 0.002 81.976-74.77 153.918-119.984 153.918z" fill=""/>
<path d="M399.154 269.796c-0.648 0-1.304-0.078-1.96-0.25a7.992 7.992 0 0 1-6.006-7c-4.196-44.806 5.452-80.458 28.668-105.956 33.426-36.712 87.684-44.416 127.312-44.416 26.356 0 45.446 3.39 46.242 3.532 3.484 0.624 6.156 3.5 6.532 7.03s-1.624 6.89-4.906 8.25c-7.138 2.938-11.858 7.14-13.982 12.498-2.062 5.25-1.5 10.828-0.64 14.67 8.172 0.328 24.592 2.954 37.106 17.56 15.216 17.78 19.78 47.15 13.514 87.316a7.998 7.998 0 1 1-14.562 3.202l-28.45-42.666c-12.716 4.608-43.244 14.232-76.396 14.232-33.262 0-64.454-9.686-77.342-14.28l-28.472 42.712a7.984 7.984 0 0 1-6.658 3.566z m191.96-63.992a8 8 0 0 1 6.672 3.562l19.732 29.606c1.218-23.966-2.876-42.026-12.154-52.852-8.938-10.436-20.686-12-26.874-12-1.56 0-2.576 0.11-2.78 0.124-3.484 0.516-6.906-1.422-8.36-4.608-0.296-0.672-7.328-16.452-1.172-32.042a34.588 34.588 0 0 1 4.844-8.452c-34.074-2.766-102.58-2.156-139.342 38.23-15.788 17.326-24.27 40.542-25.332 69.208l18.146-27.214a7.954 7.954 0 0 1 9.694-2.968c0.376 0.156 38.05 15.404 77.436 15.404 39.354 0 76.038-15.216 76.396-15.374a8.088 8.088 0 0 1 3.094-0.624z" fill=""/>
<path d="M623.61 286.044a7.994 7.994 0 0 1-7.998-8v-16.248a7.994 7.994 0 0 1 7.998-7.998c4.422 0 8 3.578 8 7.998v16.248c0 4.422-3.578 8-8 8zM399.638 286.044a7.994 7.994 0 0 1-7.998-8v-16.248a7.994 7.994 0 0 1 7.998-7.998c4.422 0 8 3.578 8 7.998v16.248c0 4.422-3.578 8-8 8zM480.254 463.958a8.02 8.02 0 0 1-5.656-2.344l-47.994-47.994a8 8 0 0 1 11.312-11.31l43.932 43.932 27.082-13.452a8.004 8.004 0 1 1 7.108 14.342l-32.232 15.998a7.896 7.896 0 0 1-3.552 0.828z" fill=""/>
<path d="M544.23 463.958a7.92 7.92 0 0 1-3.546-0.828l-32.238-15.998a8.004 8.004 0 0 1 7.108-14.342l27.082 13.452 43.932-43.932a7.996 7.996 0 1 1 11.31 11.31l-47.994 47.994a7.988 7.988 0 0 1-5.654 2.344zM512.86 479.958a7.976 7.976 0 0 1-5.656-2.344l-15.998-15.998a8 8 0 0 1 11.312-11.31l15.998 15.998a7.996 7.996 0 0 1-5.656 13.654z" fill=""/>
<path d="M512.86 479.958a7.996 7.996 0 0 1-5.656-13.654l15.998-15.998a7.996 7.996 0 1 1 11.31 11.31l-15.998 15.998a7.968 7.968 0 0 1-5.654 2.344z" fill=""/>
<path d="M496.87 543.95a8.004 8.004 0 0 1-7.96-8.89l8-71.99c0.492-4.376 4.546-7.484 8.834-7.062a8.002 8.002 0 0 1 7.07 8.842l-8 71.99a8.008 8.008 0 0 1-7.944 7.11z" fill=""/>
<path d="M528.842 543.95a8.006 8.006 0 0 1-7.938-7.11l-7.998-71.99a8 8 0 0 1 7.068-8.842c4.508-0.454 8.352 2.686 8.836 7.062l7.998 71.99a8.01 8.01 0 0 1-7.966 8.89z" fill=""/>
<path d="M703.974 559.946H320.024c-4.42 0-8-3.576-8-7.998a7.994 7.994 0 0 1 8-7.998h383.95a7.994 7.994 0 0 1 7.998 7.998 7.992 7.992 0 0 1-7.998 7.998z" fill=""/>
<path d="M512 783.918c-4.422 0-8-3.578-8-8v-191.974c0-4.422 3.578-7.998 8-7.998s7.998 3.576 7.998 7.998v191.974c0 4.422-3.576 8-7.998 8z" fill=""/>
<path d="M192.042 783.918c-4.422 0-8-3.578-8-8v-95.988c0-4.42 3.578-7.998 8-7.998s8 3.578 8 7.998v95.988a7.998 7.998 0 0 1-8 8z" fill=""/>
<path d="M831.958 783.918a7.994 7.994 0 0 1-7.998-8v-95.988a7.994 7.994 0 0 1 7.998-7.998c4.422 0 8 3.578 8 7.998v95.988c0 4.422-3.58 8-8 8z" fill=""/>
<path d="M480.004 687.93H192.042c-4.422 0-8-3.578-8-8a7.994 7.994 0 0 1 8-7.998h287.962a7.994 7.994 0 0 1 7.998 7.998c0 4.422-3.578 8-7.998 8z" fill=""/>
<path d="M831.958 687.93h-287.96c-4.422 0-8-3.578-8-8a7.994 7.994 0 0 1 8-7.998h287.96c4.422 0 8 3.578 8 7.998 0 4.422-3.58 8-8 8z" fill=""/>
<path d="M575.992 80.102h-127.984c-4.422 0-8-3.578-8-8V24.11a8.04 8.04 0 0 1 3.796-6.812 8.064 8.064 0 0 1 7.782-0.342l26.84 13.42 27.918-27.918a7.996 7.996 0 0 1 11.31 0l27.92 27.918 26.84-13.42a8.066 8.066 0 0 1 7.78 0.342 8.032 8.032 0 0 1 3.796 6.812v47.994a7.994 7.994 0 0 1-7.998 7.998z m-119.986-15.998h111.986v-27.06l-20.418 10.218a8.02 8.02 0 0 1-9.234-1.5L512 19.422l-26.34 26.34a8.094 8.094 0 0 1-9.234 1.5l-20.418-10.218v27.06z" fill=""/>
</g>
</svg>