<!DOCTYPE svg PUBLIC "-//W3C//DTD SVG 1.1//EN" "http://www.w3.org/Graphics/SVG/1.1/DTD/svg11.dtd">
<!-- Uploaded to: SVG Repo, www.svgrepo.com, Transformed by: SVG Repo Mixer Tools -->
<svg fill="#ae7aff" width="64px" height="64px" viewBox="0 0 256 256" id="Flat" xmlns="http://www.w3.org/2000/svg" stroke="#ae7aff">
<g id="SVGRepo_bgCarrier" stroke-width="0"/>
<g id="SVGRepo_tracerCarrier" stroke-linecap="round" stroke-linejoin="round"/>
<g id="SVGRepo_iconCarrier"> <path d="M221.65723,133.65625l-41.98828,42a8.00018,8.00018,0,0,1-11.31543-11.3125L196.68994,136H104a8,8,0,0,1,0-16h92.68994L168.35352,91.65625A8.00018,8.00018,0,0,1,179.669,80.34375l41.98828,42A7.99974,7.99974,0,0,1,221.65723,133.65625ZM104,208H48V48h56a8,8,0,0,0,0-16H48A16.01833,16.01833,0,0,0,32,48V208a16.01833,16.01833,0,0,0,16,16h56a8,8,0,0,0,0-16Z"/> </g>
</svg>