<?xml version="1.0" encoding="UTF-8"?>
<svg 
  xmlns="http://www.w3.org/2000/svg" 
  id="log_out" 
  data-name="Layer 1" 
  viewBox="0 0 24 24"
  width="25" 
  height="25">
  <path 
    d="M22.887,11.43c-.132-.322-1.427-3.21-6.024-5.373-.75-.353-1.643-.03-1.996,.719-.353,.75-.031,1.644,.719,1.996,1.193,.561,2.092,1.167,2.762,1.728H9.173c-.829,0-1.5,.671-1.5,1.5s.671,1.5,1.5,1.5h9.174c-.67,.561-1.569,1.167-2.762,1.728-.75,.353-1.071,1.246-.719,1.996,.256,.543,.795,.862,1.358,.862,.214,0,.431-.046,.638-.143,4.543-2.137,5.879-5.031,6.017-5.354,.157-.37,.16-.788,.007-1.159Z"
    fill="#ffffff"/>
  <path 
    d="M12.338,16.177c-.826-.085-1.555,.532-1.63,1.357-.063,.689-.125,1.322-.173,1.803-.707,.238-1.832,.536-3.03,.536-1.176,0-2.327-.308-3.05-.55-.163-1.422-.454-4.375-.454-7.322s.292-5.904,.455-7.327c.715-.24,1.857-.545,3.05-.545,1.203,0,2.325,.297,3.03,.535,.049,.48,.111,1.113,.174,1.804,.075,.825,.795,1.431,1.631,1.356,.825-.076,1.432-.806,1.356-1.631-.139-1.513-.272-2.755-.272-2.755-.056-.519-.377-.971-.848-1.195-.096-.046-2.379-1.115-5.071-1.115-2.644,0-4.963,1.064-5.061,1.109-.462,.215-.784,.65-.854,1.156-.024,.175-.59,4.33-.59,8.607s.565,8.432,.59,8.606c.07,.509,.396,.947,.864,1.16,.099,.045,2.455,1.105,5.051,1.105,2.686,0,4.974-1.069,5.07-1.115,.472-.224,.794-.677,.85-1.197,0,0,.132-1.244,.271-2.753,.076-.825-.532-1.555-1.357-1.63Z"
    fill="#ffffff"/>
</svg>
