<?xml version="1.0" encoding="UTF-8"?>
<svg 
  xmlns="http://www.w3.org/2000/svg" 
  id="trips" 
  data-name="trips" 
  viewBox="0 0 24 24"
  width="20" 
  height="20">
    <path 
      d="M14,2.5c0-1.381,1.119-2.5,2.5-2.5s2.5,1.119,2.5,2.5-1.119,2.5-2.5,2.5-2.5-1.119-2.5-2.5Zm9.866,11.001c-.186,.32-.521,.499-.867,.499-.17,0-.342-.043-.5-.134l-2.28-1.319c-.34-.196-.633-.476-.847-.806l-1.313-2.033-1.527,5.741,2.203,1.251c.78,.443,1.265,1.276,1.265,2.174v4.127c0,.552-.448,1-1,1s-1-.448-1-1v-4.127c0-.179-.097-.346-.253-.435l-4.229-2.403c-1.148-.652-1.74-2.006-1.439-3.292l1.014-4.333c-.183,.076-2.883,1.549-2.883,1.549-.087,.048-.158,.121-.203,.209l-.553,1.005c-.266,.484-.874,.661-1.358,.394-.484-.266-.661-.874-.394-1.358l.54-.98c.215-.419,.566-.781,1.002-1.021l2.345-1.295c1.13-.625,2.415-.937,3.704-.913,1.723,0,3.31,.864,4.246,2.311l1.513,2.343c.042,.065,.101,.121,.169,.16l2.281,1.32c.478,.277,.641,.889,.365,1.367Zm-10.827,4.075c-.533-.152-1.084,.161-1.232,.693l-.251,.898-1.474,3.439c-.218,.508,.018,1.096,.525,1.313,.128,.055,.262,.082,.394,.082,.388,0,.757-.228,.919-.606l1.5-3.5c.031-.051,.288-1.005,.313-1.086,.149-.532-.162-1.083-.693-1.232Zm-3.147,.866l-.826,1.676c-.566,1.149-1.953,1.629-3.108,1.075l-4.63-2.22c-1.173-.562-1.662-1.975-1.086-3.142l.832-1.689c.568-1.152,1.958-1.63,3.114-1.072l.152,.073,.105-.226c.352-.755,1.251-1.079,2.003-.721l1.582,.751c.745,.354,1.064,1.241,.716,1.988l-.13,.273,.195,.094c1.169,.565,1.654,1.974,1.081,3.139Z"
      fill="#ae7aff"/>
</svg>
